<?xml version="1.0" encoding="UTF-8"?>
<svg width="80px" height="65px" viewBox="0 0 80 65" version="1.1" xmlns="http://www.w3.org/2000/svg" xmlns:xlink="http://www.w3.org/1999/xlink">
    <!-- Generator: Sketch 55.2 (78181) - https://sketchapp.com -->
    <title>盘点</title>
    <desc>Created with Sketch.</desc>
    <g id="GTP-V1.3" stroke="none" stroke-width="1" fill="none" fill-rule="evenodd">
        <g id="00_PdaHome全量" transform="translate(-80.000000, -1320.000000)">
            <g id="盘点" transform="translate(80.000000, 1320.000000)">
                <g id="盒子">
                    <polygon id="Rectangle" fill="#6383FF" points="3.19744231e-14 5 36 11.7637743 36 65 3.19744231e-14 54.3946969"></polygon>
                    <polygon id="Rectangle-Copy" fill="#556DCC" points="36 11.9780537 78 6 78 54.8582653 36 65"></polygon>
                    <polygon id="路径-2" fill="#5174FB" points="0 5.13506447 36.1111111 12 78 6 41.8888889 0"></polygon>
                    <polygon id="路径-4" fill="#00C3B3" points="19.0115967 60.02771 12 57.9306641 12 7.42311096 19.0115967 8.74990845"></polygon>
                    <polygon id="路径-5" fill="#00C3B3" points="19.0115967 8.74990845 57.4279175 2.47045898 50.3745728 1.33956909 12 7.42311096"></polygon>
                </g>
                <circle id="椭圆形" fill="#00C3B3" cx="61.5" cy="46.5" r="18.5"></circle>
                <g id="还原" transform="translate(51.000000, 38.000000)" fill="#FFFFFF" fill-rule="nonzero">
                    <path d="M14.2593888,17 L3.02503676,17 L3.02503676,14.1706275 L14.2593888,14.1706275 C16.3275759,14.1706275 18.0041728,12.5871859 18.0041728,10.6339118 C18.0041728,8.68063762 16.3275759,7.09719607 14.2593888,7.09719607 L5.27190717,7.09719607 L7.05891811,8.79481959 C7.66707137,9.37345709 7.66707137,10.3070884 7.05891811,10.8857259 C6.76785684,11.1626126 6.37182154,11.3183349 5.95870056,11.3183349 C5.54557958,11.3183349 5.14954428,11.1626126 4.85848301,10.8857259 L0.456114936,6.70532796 C-0.152038312,6.12669046 -0.152038312,5.19305916 0.456114936,4.61442166 L4.85848301,0.432609026 C5.14954428,0.155722336 5.54557958,0 5.95870056,0 C6.37182154,0 6.76785684,0.155722336 7.05891811,0.432609026 C7.66707137,1.01124653 7.66707137,1.94487784 7.05891811,2.52351534 L5.21498645,4.26782352 L14.2593888,4.26782352 C17.9821256,4.26782352 21,7.11801831 21,10.6339118 C21,14.1498052 17.9821256,17 14.2593888,17 Z" id="路径"></path>
                </g>
            </g>
        </g>
    </g>
</svg>