<?xml version="1.0" encoding="UTF-8"?>
<svg width="74px" height="75px" viewBox="0 0 74 75" version="1.1" xmlns="http://www.w3.org/2000/svg" xmlns:xlink="http://www.w3.org/1999/xlink">
    <!-- Generator: Sketch 55.2 (78181) - https://sketchapp.com -->
    <title>语言切换</title>
    <desc>Created with Sketch.</desc>
    <g id="GTP-V1.3" stroke="none" stroke-width="1" fill="none" fill-rule="evenodd">
        <g id="00_PdaHome全量" transform="translate(-324.000000, -1312.000000)">
            <g id="语言切换" transform="translate(321.000000, 1309.000000)">
                <rect id="矩形" fill-opacity="0" fill="#FDF0F0" x="0" y="0" width="80" height="80"></rect>
                <polyline id="路径-6" stroke="#00C3B3" stroke-width="5" stroke-linecap="round" stroke-linejoin="round" points="8 23.0229492 8 59.432 23.0107422 59.432"></polyline>
                <polyline id="路径-6复制" stroke="#00C3B3" stroke-width="5" stroke-linecap="round" stroke-linejoin="round" transform="translate(65.005371, 30.204525) scale(-1, -1) translate(-65.005371, -30.204525) " points="58 12 58 48.4090508 72.0107422 48.4090508"></polyline>
                <path d="M20.4927114,31 L13.2040816,36 L13.2040816,31 L5,31 C3.8954305,31 3,30.1045695 3,29 L3,5 C3,3.8954305 3.8954305,3 5,3 L51,3 C52.1045695,3 53,3.8954305 53,5 L53,29 C53,30.1045695 52.1045695,31 51,31 L20.4927114,31 Z" id="形状结合" fill="#556DCC"></path>
                <path d="M44.4927114,73 L37.2040816,78 L37.2040816,73 L29,73 C27.8954305,73 27,72.1045695 27,71 L27,47 C27,45.8954305 27.8954305,45 29,45 L75,45 C76.1045695,45 77,45.8954305 77,47 L77,71 C77,72.1045695 76.1045695,73 75,73 L44.4927114,73 Z" id="形状结合复制" fill="#556DCC" transform="translate(52.000000, 61.500000) scale(-1, 1) translate(-52.000000, -61.500000) "></path>
                <path d="M16.0710678,54.0710678 L25.7407605,54.0710678 C26.2930453,54.0710678 26.7407605,54.5187831 26.7407605,55.0710678 C26.7407605,55.3362843 26.6354037,55.5906382 26.4478673,55.7781746 L16.7781746,65.4478673 C16.3876503,65.8383916 15.7544853,65.8383916 15.363961,65.4478673 C15.1764247,65.2603309 15.0710678,65.005977 15.0710678,64.7407605 L15.0710678,55.0710678 C15.0710678,54.5187831 15.5187831,54.0710678 16.0710678,54.0710678 Z" id="矩形" fill="#00C3B3" transform="translate(20.071068, 59.071068) rotate(135.000000) translate(-20.071068, -59.071068) "></path>
                <path d="M56.0710678,7.07106781 L65.7407605,7.07106781 C66.2930453,7.07106781 66.7407605,7.51878306 66.7407605,8.07106781 C66.7407605,8.3362843 66.6354037,8.59063821 66.4478673,8.77817459 L56.7781746,18.4478673 C56.3876503,18.8383916 55.7544853,18.8383916 55.363961,18.4478673 C55.1764247,18.2603309 55.0710678,18.005977 55.0710678,17.7407605 L55.0710678,8.07106781 C55.0710678,7.51878306 55.5187831,7.07106781 56.0710678,7.07106781 Z" id="矩形复制-2" fill="#00C3B3" transform="translate(60.071068, 12.071068) rotate(-45.000000) translate(-60.071068, -12.071068) "></path>
                <path d="M51.2414665,49 L52.7383059,49 L52.7383059,52.6409608 L60,52.6409608 L60,62.147914 L58.5436157,62.147914 L58.5436157,60.8735777 L52.7383059,60.8735777 L52.7383059,67.7711757 L51.2414665,67.7711757 L51.2414665,60.8735777 L45.4563843,60.8735777 L45.4563843,62.147914 L44,62.147914 L44,52.6409608 L51.2414665,52.6409608 L51.2414665,49 Z M45.4563843,59.4576485 L51.2414665,59.4576485 L51.2414665,54.05689 L45.4563843,54.05689 L45.4563843,59.4576485 Z M52.7383059,59.4576485 L58.5436157,59.4576485 L58.5436157,54.05689 L52.7383059,54.05689 L52.7383059,59.4576485 Z" id="中" fill="#FFFFFF" fill-rule="nonzero"></path>
                <path d="M26.9592268,6.864 L29.2727732,6.864 L36.116,24.2521279 L33.9485723,24.2521279 L32.0977352,19.3815038 L24.1099117,19.3815038 L22.2590746,24.2521279 L20.116,24.2521279 L26.9592268,6.864 Z M24.7430928,17.7011385 L31.464554,17.7011385 L28.1768828,9.00707458 L28.0794703,9.00707458 L24.7430928,17.7011385 Z" id="A" fill="#FFFFFF" fill-rule="nonzero"></path>
            </g>
        </g>
    </g>
</svg>