<?xml version="1.0" encoding="UTF-8"?>
<svg width="61px" height="74px" viewBox="0 0 61 74" version="1.1" xmlns="http://www.w3.org/2000/svg" xmlns:xlink="http://www.w3.org/1999/xlink">
    <!-- Generator: Sketch 53.2 (72643) - https://sketchapp.com -->
    <title>理货</title>
    <desc>Created with Sketch.</desc>
    <defs>
        <rect id="path-1" x="0.203082125" y="0.87683433" width="32" height="26"></rect>
        <rect id="path-3" x="0" y="0" width="41" height="29"></rect>
    </defs>
    <g id="PDA-移库/提总/理货" stroke="none" stroke-width="1" fill="none" fill-rule="evenodd">
        <g id="14_Home移库/理货/解绑" transform="translate(-329.000000, -109.000000)">
            <g id="理货" transform="translate(320.000000, 104.000000)">
                <rect id="矩形" fill-opacity="0" fill="#FDF0F0" x="0" y="0" width="80" height="80"></rect>
                <g id="路径-9" transform="translate(28.796918, 17.123166)">
                    <mask id="mask-2" fill="white">
                        <use xlink:href="#path-1"></use>
                    </mask>
                    <use id="蒙版" fill="#A2B4FE" xlink:href="#path-1"></use>
                    <polygon fill="#B0BFFF" mask="url(#mask-2)" points="16.2030821 -10 16.2030821 34.0389437 -3.79691787 34.0389437 -15 6.61387786 -7.79691787 -6.93566567"></polygon>
                </g>
                <g id="路径-9复制" transform="translate(29.000000, 41.000000)">
                    <mask id="mask-4" fill="white">
                        <use xlink:href="#path-3"></use>
                    </mask>
                    <use id="蒙版" fill="#556DCC" xlink:href="#path-3"></use>
                    <polygon id="路径-9" fill="#6383FF" mask="url(#mask-4)" points="28 -12 28 37 -2.12522918 37 -19 6.48545734 -8.15027501 -8.59046359"></polygon>
                </g>
                <polygon id="矩形" fill="#4E5983" transform="translate(21.500000, 13.750572) rotate(34.000000) translate(-21.500000, -13.750572) " points="9.39076954 11.363254 33.6092305 11.1378909 33.3907695 16.363254 9.39076954 16.363254"></polygon>
                <polygon id="矩形" fill="#4E5983" points="28 19 33 18.355957 33 67 28 67"></polygon>
                <rect id="矩形" fill="#4E5983" x="37" y="70" width="30" height="5"></rect>
                <circle id="椭圆形" fill="#4E5983" cx="33" cy="71" r="8"></circle>
                <circle id="椭圆形" stroke="#FFFFFF" cx="33" cy="71" r="4"></circle>
                <path d="M10.9663853,10.6247564 L22.5133955,6.23365198 C24.1441591,5.61350417 25.9688833,6.43277012 26.5890311,8.0635337 C26.5995787,8.09127011 26.609735,8.11915377 26.619497,8.14717637 L26.619497,8.14717637 C27.2146665,9.85566935 26.3423209,11.7275763 24.6512757,12.3706481 L13.1042655,16.7617525 C11.4735019,17.3819003 9.64877773,16.5626343 9.02862992,14.9318707 C9.0180823,14.9041343 9.00792601,14.8762507 8.99816407,14.8482281 L8.99816407,14.8482281 C8.4029945,13.1397351 9.27534012,11.2678281 10.9663853,10.6247564 Z" id="矩形" fill="#28435F" transform="translate(17.808831, 11.497702) rotate(53.000000) translate(-17.808831, -11.497702) "></path>
            </g>
        </g>
    </g>
</svg>