<?xml version="1.0" encoding="UTF-8"?>
<svg width="110px" height="25px" viewBox="0 0 110 25" version="1.1" xmlns="http://www.w3.org/2000/svg" xmlns:xlink="http://www.w3.org/1999/xlink">
    <!-- Generator: Sketch 53.2 (72643) - https://sketchapp.com -->
    <title>Group23</title>
    <desc>Created with Sketch.</desc>
    <defs>
        <polygon id="path-1" points="0.0333437791 0.00293720508 22.4698646 0.00293720508 22.4698646 23.6431695 0.0333437791 23.6431695"></polygon>
        <polygon id="path-3" points="0.0179535648 0.00302359347 15.5435148 0.00302359347 15.5435148 23.6805808 0.0179535648 23.6805808"></polygon>
    </defs>
    <g id="PDA-入库" stroke="none" stroke-width="1" fill="none" fill-rule="evenodd">
        <g id="05_PdaHome0" transform="translate(-185.000000, -9.000000)">
            <g id="Group23" transform="translate(185.000000, 9.000000)">
                <polygon id="Fill1" fill="#FFFFFF" points="62.5209299 0 61 2.47927135 67.4789095 6 69 3.52077907"></polygon>
                <polygon id="Fill2" fill="#FFFFFF" points="62.5209299 6 61 8.47917594 67.4789095 12 69 9.52037035"></polygon>
                <polygon id="Fill3" fill="#FFFFFF" points="12.1594543 1 12.1594543 11.0910399 2.84054569 11.0910399 2.84054569 1 0 1 0 24 2.84054569 24 2.84054569 13.9085632 12.1594543 13.9085632 12.1594543 24 15 24 15 1"></polygon>
                <g id="Group22" transform="translate(17.000000, 1.000000)">
                    <path d="M49.253848,22.1037691 L49.253848,12.7036966 L46.3578182,12.7036966 L46.3578182,20.6500051 L36.9917301,20.6500051 L36.9917301,1.46055318 C36.9917301,0.0399215971 35.5457881,0.00302867514 35.5457881,0.00302867514 L14.1841807,0.00302867514 L14.1841807,2.91385989 L23.2000959,2.91385989 L23.2000959,23.5608871 L26.0711495,23.5608871 L26.0711495,2.91385989 L34.0999473,2.91385989 L34.0999473,23.5603789 C34.0999473,23.5603789 47.3028704,23.557025 47.8077544,23.557025 C49.2970256,23.557025 49.253848,22.1037691 49.253848,22.1037691" id="Fill4" fill="#FFFFFF"></path>
                    <path d="M58.5445928,16.0172806 C58.3951399,16.0585437 58.1964423,16.0775492 57.9319672,16.0775492 L56.4351627,16.0775492 L56.4351627,7.48551289 L58.9892609,7.48551289 L58.9892608,15.1567506 C58.989463,15.8478069 58.76134,15.9479158 58.5445928,16.0172806 L58.5445928,16.0172806 Z M53.7831315,4.78069256 L53.7831315,18.8173822 L58.0918859,18.8173822 L58.3544397,18.8173822 C60.6535173,18.8173822 61.6863402,17.9367797 61.6863402,15.6774185 L61.6863402,4.78069256 L53.7831315,4.78069256 Z" id="Fill6" fill="#FFFFFF"></path>
                    <polygon id="Fill8" fill="#FFFFFF" points="85.8542046 11.715327 89.2460177 6.20344319 86.9573553 4.78067731 86.9515916 4.7900784 86.9515916 4.78067731 79.5100893 4.78067731 79.5105949 4.77986425 77.2219325 3.35709837 73.7787512 8.95247405 76.0674136 10.3752399 77.8456811 7.48554846 85.292846 7.48554846 83.5226175 10.3623325 78.9987337 7.73714192 77.5637125 10.2359514 74.372771 11.584474 75.4856291 14.2446773 80.6844779 12.0475666 88.1926172 16.4043869 89.6281946 13.9053742"></polygon>
                    <polygon id="Fill10" fill="#FFFFFF" points="79.2116435 15.6495049 84.8823611 18.9355158 86.2263758 16.5923579 80.5557593 13.306347"></polygon>
                    <polygon id="Fill12" fill="#FFFFFF" points="74.1550379 17.0913779 79.8257555 20.3773887 81.1697702 18.0342817 75.4991537 14.7482708"></polygon>
                    <polygon id="Fill14" fill="#FFFFFF" points="2.87656959 20.6750475 2.87656959 13.2027064 12.3023681 13.2027064 12.3023681 10.316877 2.87656959 10.316877 2.87656959 2.88884791 12.3023681 2.88884791 12.3023681 0.0030185118 0.00541488816 0.0030185118 0.00541488816 23.560877 14.1841807 23.560877 14.1841807 20.6750475"></polygon>
                    <g id="Group18" transform="translate(70.428938, 0.000000)">
                        <mask id="mask-2" fill="white">
                            <use xlink:href="#path-1"></use>
                        </mask>
                        <g id="Clip17"></g>
                        <path d="M19.7729116,20.9049118 L18.9011196,20.9049118 L2.72926037,20.9047085 L2.72926037,2.74256697 L18.7155169,2.74282105 C19.6818545,2.74282105 19.7729116,2.99492269 19.7729116,3.66356878 L19.7729116,20.9049118 Z M19.1377872,0.00293720508 L0.0333437791,0.00771397459 L0.0333437791,23.6431695 L22.4698899,23.6396123 L22.4698899,3.14295172 C22.4698899,0.883387296 21.437067,0.00293720508 19.1377872,0.00293720508 L19.1377872,0.00293720508 Z" id="Fill16" fill="#FFFFFF" mask="url(#mask-2)"></path>
                    </g>
                    <g id="Group21" transform="translate(53.036580, 0.000000)">
                        <mask id="mask-4" fill="white">
                            <use xlink:href="#path-3"></use>
                        </mask>
                        <g id="Clip20"></g>
                        <path d="M15.5435148,0.00302359347 L0.0179535648,0.00302359347 L0.0179535648,2.88890381 L10.6070682,2.88890381 L10.6070682,16.1623267 C10.6089894,21.7112559 4.97816302,20.9137387 4.97816302,20.9137387 L4.97816302,23.6444247 C4.97816302,23.6444247 13.4030414,24.6602505 13.4030414,15.9264356 L13.4030414,2.88890381 L15.5435148,2.88890381 L15.5435148,0.00302359347 Z" id="Fill19" fill="#FFFFFF" mask="url(#mask-4)"></path>
                    </g>
                </g>
            </g>
        </g>
    </g>
</svg>