<?xml version="1.0" encoding="UTF-8"?>
<svg width="79px" height="68px" viewBox="0 0 79 68" version="1.1" xmlns="http://www.w3.org/2000/svg" xmlns:xlink="http://www.w3.org/1999/xlink">
    <!-- Generator: Sketch 53.2 (72643) - https://sketchapp.com -->
    <title>盘点</title>
    <desc>Created with Sketch.</desc>
    <g id="PDA-入库" stroke="none" stroke-width="1" fill="none" fill-rule="evenodd">
        <g id="07_PdaHome" transform="translate(-77.000000, -354.000000)">
            <g id="盘点" transform="translate(77.000000, 354.000000)">
                <g id="盒子">
                    <polygon id="Rectangle" fill="#7F95FA" points="3.19744231e-14 5 36 11.7637743 36 65 3.19744231e-14 54.3946969"></polygon>
                    <polygon id="Rectangle-Copy" fill="#4E67D4" points="36 11.9780537 78 6 78 54.8582653 36 65"></polygon>
                    <polygon id="路径-2" fill="#A8B8FF" points="0 5.13506447 36.1111111 12 78 6 41.8888889 0"></polygon>
                    <polygon id="路径-4" fill="#00C3B3" points="19.0115967 60.02771 12 57.9306641 12 7.42311096 19.0115967 8.74990845"></polygon>
                    <polygon id="路径-5" fill="#00C3B3" points="19.0115967 8.74990845 57.4279175 2.47045898 50.3745728 1.33956909 12 7.42311096"></polygon>
                </g>
                <g id="搜索" transform="translate(37.000000, 32.000000)" fill="#00C3B3">
                    <path d="M31.2008435,16.7572631 L31.8591601,16.7661492 C33.475113,16.7879617 34.783378,18.0859114 34.8179813,19.701641 L35.159663,35.6557408 C35.1951389,37.3122152 33.8810601,38.6838119 32.2245857,38.7192879 C32.1896821,38.7200354 32.1547682,38.7201736 32.1198598,38.7197024 L31.4615432,38.7108163 C29.8455903,38.6890038 28.5373253,37.3910541 28.502722,35.7753244 L28.1610403,19.8212247 C28.1255644,18.1647503 29.4396432,16.7931535 31.0961176,16.7576776 C31.1310212,16.7569301 31.1659351,16.7567919 31.2008435,16.7572631 Z" id="矩形" transform="translate(31.660352, 27.738483) rotate(-50.000000) translate(-31.660352, -27.738483) "></path>
                    <path d="M15,29 C6.71572875,29 0,22.5081289 0,14.5 C0,6.49187113 6.71572875,0 15,0 C23.2842712,0 30,6.49187113 30,14.5 C30,22.5081289 23.2842712,29 15,29 Z M15,22.7916084 C19.9705627,22.7916084 24,19.0326788 24,14.3958042 C24,9.75892958 19.9705627,6 15,6 C10.0294373,6 6,9.75892958 6,14.3958042 C6,19.0326788 10.0294373,22.7916084 15,22.7916084 Z" id="合并形状"></path>
                </g>
            </g>
        </g>
    </g>
</svg>