<?xml version="1.0" encoding="UTF-8"?>
<svg width="80px" height="80px" viewBox="0 0 80 80" version="1.1" xmlns="http://www.w3.org/2000/svg" xmlns:xlink="http://www.w3.org/1999/xlink">
    <!-- Generator: Sketch 53.2 (72643) - https://sketchapp.com -->
    <title>叹号</title>
    <desc>Created with Sketch.</desc>
    <g id="PDA-入库" stroke="none" stroke-width="1" fill="none" fill-rule="evenodd">
        <g id="14_呼叫9个成功1个失败" transform="translate(-200.000000, -228.000000)" fill="#4E5983" fill-rule="nonzero">
            <g id="叹号" transform="translate(200.000000, 228.000000)">
                <path d="M40.0000537,80 C17.9086758,80 0,62.0916462 0,39.9999463 C0,17.9085684 17.9086758,1.42108547e-14 40.0000537,1.42108547e-14 C62.0914316,1.42108547e-14 80,17.9086758 80,39.9999463 C80.0000001,62.0917536 62.0914316,80 40.0000537,80 L40.0000537,80 Z M46.1179237,20.510869 C46.1179237,17.4489284 42.9746177,14.9670659 39.9098862,14.9670659 C36.84494,14.9670659 33.7921236,17.4489284 33.7921236,20.510869 L35.4022588,43.6297278 C35.4022588,46.6916683 36.8106979,49.1766438 39.8696328,49.1766438 C42.9345789,49.1766438 44.5077884,46.6917757 44.5077884,43.6297278 L46.1179237,20.510869 L46.1179237,20.510869 Z M40.0962325,52.1757892 C36.634549,52.1757892 33.8340944,54.9882661 33.8340944,58.4496275 C33.8340944,61.9112036 36.6346564,64.7146638 40.0962325,64.7146638 C43.557594,64.7146638 46.3702856,61.9112036 46.3702856,58.4496275 C46.3702856,54.9880514 43.5575939,52.1757892 40.0962325,52.1757892 L40.0962325,52.1757892 Z" id="形状"></path>
            </g>
        </g>
    </g>
</svg>