<?xml version="1.0" encoding="UTF-8"?>
<svg width="80px" height="80px" viewBox="0 0 80 80" version="1.1" xmlns="http://www.w3.org/2000/svg" xmlns:xlink="http://www.w3.org/1999/xlink">
    <!-- Generator: Sketch 53.2 (72643) - https://sketchapp.com -->
    <title>形状</title>
    <desc>Created with Sketch.</desc>
    <g id="PDA-入库" stroke="none" stroke-width="1" fill="none" fill-rule="evenodd">
        <g id="15_呼叫失败" transform="translate(-200.000000, -225.000000)" fill="#FF6F79" fill-rule="nonzero">
            <g id="呼叫失败弹窗" transform="translate(0.000000, 150.000000)">
                <g id="失败" transform="translate(200.000000, 75.000000)">
                    <path d="M68.2936899,11.7069714 C52.7046217,-3.90232379 27.294262,-3.90232379 11.7051938,11.7069714 C-3.90173127,27.3073265 -3.90173127,52.7059562 11.7051938,68.3063113 C19.2050892,75.8159379 29.392447,80.0266928 39.9994419,79.9998727 C50.6064367,80.0266928 60.7937945,75.8159379 68.3026183,68.3063113 C83.900615,52.7059562 83.900615,27.3073265 68.2936899,11.7069714 Z M59.1688172,55.1376448 C60.6598678,56.6306301 60.6598678,59.0444386 59.1688172,60.5374239 C57.6777666,62.0304092 55.267086,62.0304092 53.7760353,60.5374239 L39.6690893,46.430054 L25.5621433,60.5374239 C23.9907367,61.9499489 21.5711276,61.8069084 20.1693614,60.2334628 C18.8747366,58.7851777 18.8747366,56.59487 20.160433,55.1465848 L34.2584505,41.030275 L20.160433,26.9229051 C18.6693823,25.4299199 18.6693823,23.0161113 20.160433,21.523126 C21.6514836,20.0301408 24.0621642,20.0301408 25.5532149,21.523126 L39.6512324,35.6304959 L54.4278119,20.8436836 C55.9188626,19.3506984 58.3295432,19.3506984 59.8205938,20.8436836 C61.3116445,22.3366689 61.3116445,24.7504774 59.8205938,26.2434627 L45.0618712,41.0123949 L59.1688172,55.1376448 Z" id="形状"></path>
                </g>
            </g>
        </g>
    </g>
</svg>