<?xml version="1.0" encoding="UTF-8"?>
<svg width="80px" height="80px" viewBox="0 0 80 80" version="1.1" xmlns="http://www.w3.org/2000/svg" xmlns:xlink="http://www.w3.org/1999/xlink">
    <!-- Generator: Sketch 53.2 (72643) - https://sketchapp.com -->
    <title>成功</title>
    <desc>Created with Sketch.</desc>
    <g id="PDA-入库" stroke="none" stroke-width="1" fill="none" fill-rule="evenodd">
        <g id="22_Pda放行成功" transform="translate(-200.000000, -225.000000)" fill-rule="nonzero">
            <g id="呼叫成功" transform="translate(0.000000, 150.000000)">
                <g id="成功" transform="translate(200.000000, 75.000000)">
                    <rect id="矩形" fill="#000000" opacity="0" x="0" y="0" width="80" height="80"></rect>
                    <path d="M40,0 C17.8909091,0 0,17.8909091 0,40 C0,62.1090909 17.8909091,80 40,80 C62.1090909,80 80,62.1090909 80,40 C80,17.8909091 62.1090909,0 40,0 Z M60.3636363,33.2363637 L38.5454545,55.0545455 C38.1090909,55.4909091 37.5272727,55.7818182 36.8727273,55.7818182 C36.0727273,55.9272727 35.2727273,55.7090909 34.6909091,55.1272727 L20.9454545,41.3090909 C20.4915682,40.8561343 20.2364993,40.2412351 20.2364993,39.6 C20.2364993,38.9587649 20.4915682,38.3438657 20.9454545,37.8909091 L22.1090909,36.7272727 C23.0545455,35.7818182 24.5818182,35.7818182 25.5272727,36.7272727 L36.5818182,47.7818182 L55.7090909,28.6545455 C56.6545455,27.7090909 58.1818182,27.7090909 59.1272727,28.6545455 L60.3636363,29.8181818 C61.3090909,30.7636363 61.3090909,32.2909091 60.3636363,33.2363637 Z" id="形状" fill="#4E5983"></path>
                </g>
            </g>
        </g>
    </g>
</svg>