<?xml version="1.0" encoding="UTF-8"?>
<svg width="64px" height="76px" viewBox="0 0 64 76" version="1.1" xmlns="http://www.w3.org/2000/svg" xmlns:xlink="http://www.w3.org/1999/xlink">
    <!-- Generator: Sketch 53.2 (72643) - https://sketchapp.com -->
    <title>Group 3</title>
    <desc>Created with Sketch.</desc>
    <g id="PDA-入库" stroke="none" stroke-width="1" fill="none" fill-rule="evenodd">
        <g id="07_PdaHome" transform="translate(-336.000000, -356.000000)">
            <g id="Group-3" transform="translate(336.000000, 356.000000)">
                <path d="M56,56.2842712 C56,40.6632996 43.463973,28 28,28 C12.536027,28 0,40.6632996 0,56.2842712 C0,71.9052429 56,71.9052429 56,56.2842712 Z" id="椭圆形" fill="#4E67D4"></path>
                <circle id="椭圆形" fill="#768DF8" cx="26.5" cy="18.5" r="18.5"></circle>
                <g id="关联" transform="translate(36.000000, 48.000000)" fill-rule="nonzero">
                    <rect id="矩形" fill="#000000" opacity="0" x="0" y="0" width="28" height="28"></rect>
                    <path d="M14.0000564,0 C6.26865545,0 0,6.26857721 0,13.9999859 C0,21.7314792 6.26865545,28 14.0000564,28 C21.7314573,28 28,21.7314792 28,13.9999859 C28,6.26857721 21.7314291,0 14.0000564,0 Z" id="形状" fill="#00C3B3"></path>
                    <path d="M13.2276462,20.3881522 L12.3867466,21.2034325 C11.6210727,21.9432897 10.6162772,22.3125137 9.61145359,22.3125137 C8.60818011,22.3125137 7.60507572,21.9432897 6.83943002,21.2034325 C6.09596592,20.4838404 5.687537,19.5268739 5.687537,18.5099861 C5.687537,17.4914635 6.09593775,16.5343842 6.83943002,15.8150176 L9.93614485,12.8190611 C11.8604762,10.9580033 14.0718999,10.6897381 15.5689466,12.1371524 C15.9704702,12.5268669 15.9739087,13.1642714 15.5724133,13.5573117 C15.1724681,13.950493 14.5196188,13.9537906 14.116235,13.5625542 C13.23613,12.7113943 12.0295862,13.6239975 11.3870808,14.2461258 L8.29036594,17.2419413 C7.93996994,17.5803309 7.74856557,18.0314605 7.74856557,18.5099861 C7.74856557,18.9885116 7.93999814,19.4379501 8.29036594,19.7780308 C9.02007575,20.4822057 10.2060726,20.4822057 10.9341477,19.7780308 L11.7749347,18.9628632 C12.1799532,18.5715704 12.8311396,18.573346 13.2327195,18.9680492 C13.6343559,19.3611741 13.6308891,19.996803 13.2276462,20.3881522 Z" id="路径" fill="#FFFFFF"></path>
                    <path d="M21.1607109,12.7130854 L17.8571745,15.9089301 C16.8369618,16.8966183 15.7637331,17.3958034 14.7468463,17.3958034 C13.9180098,17.3958034 13.1250247,17.0624308 12.4311662,16.392529 C12.0279233,16.0011797 12.0244565,15.3654945 12.4276994,14.9707349 C12.8276447,14.5777509 13.4804939,14.5759753 13.8837368,14.9673245 C14.1845554,15.2595751 14.8954658,15.9447815 16.4045756,14.4836129 L19.7079711,11.2879091 C20.0600864,10.9495196 20.2513781,10.4983054 20.2513781,10.0197798 C20.2513781,9.54131069 20.0600864,9.09009647 19.7079711,8.75173512 C19.0516832,8.11416144 18.0418145,7.80666273 17.2709827,8.55167776 L16.2233742,9.56687453 C15.8199622,9.95650445 15.1671693,9.95475698 14.7656457,9.56171667 C14.3657286,9.16692888 14.3674197,8.53127179 14.7724101,8.14155733 L15.8217097,7.12652968 C17.3085251,5.68742999 19.5542219,5.77119592 21.1606545,7.32641796 C21.9022866,8.04581277 22.3124066,9.00120092 22.3124066,10.0197799 C22.3124912,11.0383025 21.902343,11.9936906 21.1607109,12.7130854 Z" id="路径" fill="#FFFFFF"></path>
                </g>
            </g>
        </g>
    </g>
</svg>