<?xml version="1.0" encoding="UTF-8"?>
<svg width="80px" height="80px" viewBox="0 0 80 80" version="1.1" xmlns="http://www.w3.org/2000/svg" xmlns:xlink="http://www.w3.org/1999/xlink">
    <!-- Generator: Sketch 53.2 (72643) - https://sketchapp.com -->
    <title>移库</title>
    <desc>Created with Sketch.</desc>
    <defs>
        <linearGradient x1="50%" y1="0%" x2="50%" y2="100%" id="linearGradient-1">
            <stop stop-color="#00C3B3" offset="0%"></stop>
            <stop stop-color="#00C3B3" stop-opacity="0" offset="100%"></stop>
        </linearGradient>
    </defs>
    <g id="PDA-移库/提总/理货" stroke="none" stroke-width="1" fill="none" fill-rule="evenodd">
        <g id="05_移库_Home0" transform="translate(-80.000000, -104.000000)">
            <g id="移库" transform="translate(80.000000, 104.000000)">
                <rect id="矩形" fill-opacity="0" fill="#FDF0F0" x="0" y="0" width="80" height="80"></rect>
                <g id="分组盒子" transform="translate(0.000000, 31.000000)">
                    <polygon id="Rectangle-Copy-3" fill="#4054A6" points="40.5333333 0.568229167 67.2 4.88359375 67.2 41.0143229 40.5333333 33.6613128"></polygon>
                    <polygon id="Rectangle-Copy-2" fill="#4C63BF" points="9.6 4.31901042 40.5333333 0.568229167 40.5333333 33.484931 9.6 41.0143229"></polygon>
                    <polygon id="Rectangle" fill="#6383FF" points="9.6 4.31901042 36.2666667 9.33333333 36.2666667 48.8 9.6 40.9377604"></polygon>
                    <polygon id="Rectangle-Copy" fill="#556DCC" points="36.2666667 9.33333333 67.2 4.88359375 67.2 41.2510417 36.2666667 48.8"></polygon>
                    <polygon id="Path-2" fill="#7793FF" points="9.6 4.31901042 0 14.8502604 26.9526042 22.1609375 36.2666667 9.33333333"></polygon>
                    <polygon id="Path-3" fill="#6C89FC" points="36.2666667 9.33333333 45.1757813 22.1609375 80 14.5666667 67.2 4.88359375"></polygon>
                </g>
                <path d="M27,32 L17,32 C21.3605475,23.6550348 23.5408213,16.0984185 23.5408213,9.33015137 C21.2625083,9.31431599 19.7508387,9.31431599 19.0058124,9.33015137 C24.3352708,4.39897592 27,1.32058702 27,0.0949846663 C27,-1.13061768 27,9.50438743 27,32 Z M27,32 C27,9.50438743 27,-1.13061768 27,0.0949846663 C27,1.32058702 29.6647292,4.39897592 34.9941876,9.33015137 C34.2491613,9.31431599 32.7374917,9.31431599 30.4591787,9.33015137 C30.4591787,16.0984185 32.6394525,23.6550348 37,32 L27,32 Z" id="形状结合" fill="url(#linearGradient-1)"></path>
                <path d="M52,38 L42,38 C46.3605475,29.6550348 48.5408213,22.0984185 48.5408213,15.3301514 C46.2625083,15.314316 44.7508387,15.314316 44.0058124,15.3301514 C49.3352708,10.3989759 52,7.32058702 52,6.09498467 C52,4.86938232 52,15.5043874 52,38 Z M52,38 C52,15.5043874 52,4.86938232 52,6.09498467 C52,7.32058702 54.6647292,10.3989759 59.9941876,15.3301514 C59.2491613,15.314316 57.7374917,15.314316 55.4591787,15.3301514 C55.4591787,22.0984185 57.6394525,29.6550348 62,38 L52,38 Z" id="形状结合复制" fill="url(#linearGradient-1)" transform="translate(52.000000, 22.000000) rotate(180.000000) translate(-52.000000, -22.000000) "></path>
            </g>
        </g>
    </g>
</svg>