<?xml version="1.0" encoding="UTF-8"?>
<svg width="73px" height="77px" viewBox="0 0 73 77" version="1.1" xmlns="http://www.w3.org/2000/svg" xmlns:xlink="http://www.w3.org/1999/xlink">
    <!-- Generator: Sketch 54.1 (76490) - https://sketchapp.com -->
    <title>整托出库</title>
    <desc>Created with Sketch.</desc>
    <defs>
        <polygon id="path-1" points="4.93687922 4.83781224 38.7948729 4.8052825 38.7634275 37.6096268 4.90543381 37.6421565"></polygon>
        <polygon id="path-3" points="5.60191949 2.49018121 23.1663631 2.90611544 23.752541 36.3812576 5.57047407 35.2945255"></polygon>
        <linearGradient x1="50%" y1="0%" x2="50%" y2="76.7842061%" id="linearGradient-5">
            <stop stop-color="#00C3B3" stop-opacity="0" offset="0%"></stop>
            <stop stop-color="#00C3B3" offset="100%"></stop>
        </linearGradient>
    </defs>
    <g id="PDA-移库/提总/理货" stroke="none" stroke-width="1" fill="none" fill-rule="evenodd">
        <g id="13_Home整托/整箱" transform="translate(-323.000000, -106.000000)">
            <g id="整托出库" transform="translate(320.000000, 104.000000)">
                <rect id="矩形" fill-opacity="0" fill="#FDF0F0" x="0" y="0" width="80" height="80"></rect>
                <g id="路径-4" transform="translate(30.000000, 29.000000)">
                    <mask id="mask-2" fill="white">
                        <use xlink:href="#path-1"></use>
                    </mask>
                    <use id="蒙版" fill="#556DCC" transform="translate(21.850153, 21.223720) rotate(-20.000000) translate(-21.850153, -21.223720) " xlink:href="#path-1"></use>
                </g>
                <g id="路径-4" transform="translate(30.000000, 34.000000)">
                    <mask id="mask-4" fill="white">
                        <use xlink:href="#path-3"></use>
                    </mask>
                    <use id="蒙版" fill="#6383FF" transform="translate(14.661508, 19.435719) rotate(-20.000000) translate(-14.661508, -19.435719) " xlink:href="#path-3"></use>
                </g>
                <path d="M40.934649,63.2691519 C41.5935131,63.0935818 42.2858279,63 43,63 C46.1612119,63 48.894175,64.8335511 50.1934165,67.4951805 L74.4453149,58.9166667 L76,62.5484757 L50.966857,71.7331291 C50.596666,75.8077864 47.1711237,79 43,79 C38.581722,79 35,75.418278 35,71 C35,68.9505203 35.7706781,67.0810421 37.0380408,65.665559 L23.8964238,30.8891079 L5.79172271,37.6334673 L4,33.6310426 L26.3080424,25 L40.934649,63.2691519 Z" id="形状结合" fill="#4E5983"></path>
                <circle id="椭圆形" stroke="#FFFFFF" cx="43" cy="71" r="4"></circle>
                <path d="M5.15755479,31.6270542 L16.704565,27.2359498 C18.3353286,26.615802 20.1600528,27.4350679 20.7802006,29.0658315 C20.7907482,29.0935679 20.8009045,29.1214516 20.8106664,29.1494742 L20.8106664,29.1494742 C21.405836,30.8579671 20.5334904,32.7298741 18.8424452,33.3729458 L7.29543501,37.7640502 C5.66467143,38.384198 3.83994722,37.5649321 3.21979941,35.9341685 C3.20925178,35.9064321 3.19909549,35.8785484 3.18933356,35.8505258 L3.18933356,35.8505258 C2.59416398,34.1420329 3.46650961,32.2701259 5.15755479,31.6270542 Z" id="矩形" fill="#28435F"></path>
                <path d="M21,2 C31.8810997,11.8792729 37.3216495,18.6836595 37.3216495,22.4131597 C35.0177984,22.4100431 32.2975235,22.4100431 29.1608247,22.4131597 L41.7392956,31 L53.5343644,22.4131597 L46.1947984,22.4131597 C51.9496705,9.61782749 57.2180711,2.81344092 62,2 C58.5524471,2.09505727 44.8857804,2.09505727 21,2 Z" id="路径-14" fill="url(#linearGradient-5)" transform="translate(41.500000, 16.500000) rotate(180.000000) translate(-41.500000, -16.500000) "></path>
            </g>
        </g>
    </g>
</svg>